solid OpenSCAD_Model
  facet normal -1 0 0
    outer loop
      vertex 0 0 12
      vertex 0 6 12
      vertex 0 0 0
    endloop
  endfacet
  facet normal -1 0 0
    outer loop
      vertex 0 0 0
      vertex 0 6 12
      vertex 0 6 0
    endloop
  endfacet
  facet normal 0 0 1
    outer loop
      vertex 0 0 12
      vertex 25 0 12
      vertex 25 6 12
    endloop
  endfacet
  facet normal 0 0 1
    outer loop
      vertex 0 6 12
      vertex 0 0 12
      vertex 25 6 12
    endloop
  endfacet
  facet normal 0 -1 0
    outer loop
      vertex 0 0 0
      vertex 25 0 0
      vertex 25 0 12
    endloop
  endfacet
  facet normal 0 -1 0
    outer loop
      vertex 0 0 12
      vertex 0 0 0
      vertex 25 0 12
    endloop
  endfacet
  facet normal 0 0 -1
    outer loop
      vertex 0 6 0
      vertex 25 6 0
      vertex 0 0 0
    endloop
  endfacet
  facet normal 0 0 -1
    outer loop
      vertex 0 0 0
      vertex 25 6 0
      vertex 25 0 0
    endloop
  endfacet
  facet normal 0 1 0
    outer loop
      vertex 0 6 12
      vertex 25 6 12
      vertex 0 6 0
    endloop
  endfacet
  facet normal 0 1 0
    outer loop
      vertex 0 6 0
      vertex 25 6 12
      vertex 25 6 0
    endloop
  endfacet
  facet normal 1 0 0
    outer loop
      vertex 25 0 0
      vertex 25 6 0
      vertex 25 6 12
    endloop
  endfacet
  facet normal 1 0 0
    outer loop
      vertex 25 0 12
      vertex 25 0 0
      vertex 25 6 12
    endloop
  endfacet
endsolid OpenSCAD_Model
